<svg width="36" height="36" viewBox="0 0 36 36" fill="none" xmlns="http://www.w3.org/2000/svg">
<mask id="mask0_2997_317701" style="mask-type:alpha" maskUnits="userSpaceOnUse" x="8" y="8" width="20" height="20">
<path d="M22.9999 14.4286L19.4285 18L22.9999 21.5714C23.3928 21.9643 23.3928 22.6071 22.9999 23C22.607 23.3928 21.9642 23.3928 21.5713 23L17.9999 19.4286L14.4285 23C14.0357 23.3928 13.3928 23.3928 13 23C12.6071 22.6071 12.6071 21.9643 13 21.5714L16.5714 18L13 14.4286C12.6071 14.0357 12.6071 13.3929 13 13C13.3928 12.6072 14.0357 12.6072 14.4285 13L17.9999 16.5714L21.5713 13C21.9642 12.6072 22.607 12.6072 22.9999 13C23.3927 13.3929 23.3928 14.0357 22.9999 14.4286Z" fill="black"/>
</mask>
<g mask="url(#mask0_2997_317701)">
<rect x="28" y="7.99939" width="20" height="20" transform="rotate(90 28 7.99939)" fill="white"/>
</g>
</svg>
